/* XPM */
static char *_e941e206d934ea3aa4532cc1dda9281fBmk4R5WjQGDNL92[] = {
/* columns rows colors chars-per-pixel */
"128 128 83 1 ",
"  c black",
". c #5B4527",
"X c #62492A",
"o c #684F2C",
"O c #69502C",
"+ c #654F31",
"@ c #725731",
"# c #745A33",
"$ c #7E5F33",
"% c #745C39",
"& c #7F6236",
"* c #826235",
"= c #886636",
"- c #836539",
"; c #8D6C3B",
": c #916F3C",
"> c #95713D",
", c #9B753E",
"< c #9F783F",
"1 c #A0793F",
"2 c #947242",
"3 c #9B7742",
"4 c #9E7941",
"5 c #9A7848",
"6 c #A37B42",
"7 c #A87F43",
"8 c #A37E49",
"9 c #A78047",
"0 c #AB8145",
"q c #AE8449",
"w c #B18546",
"e c #B68A49",
"r c #B98C49",
"t c #BC8E4A",
"y c #BC8F4B",
"u c #BD904B",
"i c #BE904B",
"p c #BF914C",
"a c #C0914C",
"s c #C3944D",
"d c #C5954D",
"f c #C5954E",
"g c #C5964E",
"h c #C7974E",
"j c #C6964F",
"k c #C7974F",
"l c #C8974E",
"z c #C8974F",
"x c #C9994F",
"c c #CA9950",
"v c #CB9A50",
"b c #C99A52",
"n c #CC9B50",
"m c #CC9C53",
"M c #D09E54",
"N c #D7A457",
"B c #D8A456",
"V c #D8A457",
"C c #DEA857",
"Z c #D6A259",
"A c #DBA758",
"S c #DCA759",
"D c #DDA859",
"F c #DEA958",
"G c #E0AA59",
"H c #E1AA59",
"J c #E1AB59",
"K c #E0AA5A",
"L c #E1AB5B",
"P c #E3AC5A",
"I c #E5AE5C",
"U c #EAB25D",
"Y c #EBB25E",
"T c #EBB35E",
"R c #ECB45E",
"E c #EDB45E",
"W c #EDB45F",
"Q c #F0B65F",
"! c #F0B75F",
"~ c #EFB660",
"^ c #F0B660",
"/ c #F1B760",
"( c #F3B861",
/* pixels */
"                                                                                                                                ",
"                                                                                                                                ",
"                                                                                                                                ",
"                                                                                                                                ",
"                                                                                                                                ",
"                                                                                                                                ",
"                                                                                                                                ",
"                                                                                                                                ",
"                                                                                                                                ",
"                                                                                                                                ",
"                                                                                                                                ",
"                                                                                                                                ",
"                                                                                                                                ",
"                                                                                                                                ",
"                                                                                                                                ",
"                                                                                                                                ",
"                                                                                                                                ",
"                                                                                                                                ",
"                                                                                                                                ",
"                                                                                                                                ",
"                                                                                                                                ",
"                                                                                                                                ",
"                                                                                                                                ",
"                                                                                                                                ",
"                                                                                                                                ",
"                                                                                                                                ",
"                                                                                                                                ",
"                                                                                                                                ",
"                                                                                                                                ",
"                                                                                                                                ",
"                                                                                                                                ",
"                                                                                                                                ",
"                                                                                                                                ",
"                                                                                                                                ",
"                                                                                                                                ",
"                                                                                                                                ",
"                                                                                                                                ",
"                                                                                                                                ",
"                                                                                                                                ",
"                                                                                                                                ",
"                                                                                                                                ",
"                                                                                                                                ",
"                                                                                                                                ",
"                                                                                                                                ",
"                                                                                                                                ",
"                                                                                                                                ",
"                                                                                                                                ",
"                                                                                                                                ",
"                                                                                                                                ",
"                                                                                                                                ",
"                                                                                                                                ",
"                                                                                                                                ",
"                                                                                                                                ",
"                                                                                                                                ",
"                                                                                                                                ",
"                                                                                                                                ",
"                                                                                                                                ",
"                                                                                                                                ",
"                                                                                                                                ",
"                                                                                                                                ",
"                                                                                                                                ",
"                                                                                                                                ",
"                                                                                                                                ",
"                                                                                                                                ",
"                                                                                                                                ",
"                                                                                                                                ",
"                                                                                                                                ",
"                                                                                                                                ",
"                                                                                                                                ",
"                                                                                                                                ",
"                                                                                                                                ",
"                                                                                                                                ",
"                                                                                                                                ",
"                                                                                                                                ",
"                                                                                                                                ",
"                                                                                                                                ",
"                                                                                                                                ",
"                                                                                                                                ",
"                                                                                                                                ",
"                                                                                                                                ",
"                                                                                                                                ",
"                                                                                                                                ",
"                                                                                                                                ",
"                                                                                                                                ",
"                                                                                                                                ",
"                                                                                                                                ",
"                                                                                                                                ",
"                                                                                                                                ",
"                                                                                                                                ",
"                                                                                                                                ",
"                                                                                                                                ",
"                                                                                                                                ",
"                                                                                                                                ",
"                                                                                                                                ",
"                                                                                                                                ",
"                                                                                                                                ",
"                                                X26,666,<<16<16<6<<6<611<666,6,X                                                ",
"                                                :ZSm/WWWWQWWWWWWE~EEE~EEEET/vAm:                                                ",
"                                                6BqLQTQWUTWUWWWW~YYE~TEEWWE/KqA6                                                ",
"                                                ,lS7,6,6<<<<<<<<,3<<131,<3367Sf>                                                ",
"                                                <WQ6:r;$<,,,,<,,,33,<,,,,,<=1/Q,                                                ",
"                                                ,TE6MKKq6099789977777787770:1TT,                                                ",
"                                                ,UQ3:HMK2#>;;;;;;;;;;;;;;;:*6WT,                                                ",
"                                                ,UQ6*8HBHw0xfdkhddddlfflffxw6WT>                                                ",
"                                                ,EQ6w58KAS67fppaaaaaaydappf01WT,                                                ",
"                                                :ET6@-+3CZC8#-*&**&&*&&&*&-@1WT,                                                ",
"                                                ,TE66tt28ABS44ieeeeeeeeeeet16WW,                                                ",
"                                                ,TE6wnfn30KBC77xdfllffvfxfnw6WT,                                                ",
"                                                ,UE6;6316%2KBD7464444444446;6WT,                                                ",
"                                                2UE6*:;:;:-8DBJ2#>>;>;;>::>&6TT,                                                ",
"                                                ,EE67xlffff26DBJq0xfffflffxw6TT,                                                ",
"                                                ,YE67faaapaf28CBD60fpppaaif76WT,                                                ",
"                                                ,R!1#-&&*&&&-+4CNC9#-&&*&&*#<~T,                                                ",
"                                                ,R!13ueeeeeeei24CNC44ieeeet76ET,                                                ",
"                                                ,RW<qxgghhhhhhh50JBD77xhhvv06WT,                                                ",
"                                                ,RW<;0<,44<3<3<7%2JBA036336;6WT:                                                ",
"                                                >RR6*>>>>:::>;>;>-8DNC>#<>>*1WW<                                                ",
"                                                ,RR6wxhhhhhhhfhfkk24DAJq0xx06WT,                                                ",
"                                                ,RR69iuiiiuiiiiipif28CBD76f06TT,                                                ",
"                                                ,RR<#-&&&&&&&&&&&&*-+4DBD8##6TT,                                                ",
"                                                ,TW7<ieterrrerteeteet28HBC7;7EE,                                                ",
"                                                >TW<wxffhddxldfffffsff<7CNJ>3ET,                                                ",
"                                                ,TT6>966101<11767666667#3KIx6ET,                                                ",
"                                                ,~~<.OoOOOOOOOOoOooOoOO@o>x06EE,                                                ",
"                                                >xC0<09710777001777711077<667Av2                                                ",
"                                                >meJ!!WWWW!!W!WQ~~WTQWQQWQW(KeM;                                                ",
"                                                *txiJCCCJJCHCCJJCDDCKHCKKCLKrvr*                                                ",
"                                                X$**************************$**X                                                "
};
