/* XPM */
static char *_8443c7098104f018454a2a741391effO7Vl8DnlQ0ZsB4P1[] = {
/* columns rows colors chars-per-pixel */
"3 2 3 1 ",
"  c #EF4135",
". c #0055A4",
"X c white",
/* pixels */
".X ",
".X "
};
