/* XPM */
static char *result[] = {
/* columns rows colors chars-per-pixel */
"71 88 17 1 ",
"  c #0D1626",
". c #0E1727",
"X c #34232E",
"o c #2A2C36",
"O c #2B2D37",
"+ c #523F2E",
"@ c #513E35",
"# c #425D2A",
"$ c #435E2B",
"% c #7B5841",
"& c #9A735D",
"* c #65AC1E",
"= c #658F40",
"- c #A9D656",
"; c #CDEC62",
": c #8F9788",
"> c None",
/* pixels */
">>>>>>>>>>>>>>>>>>>>>>>>>>>>>>###>>>>>###>>>>>>>>>>>>>>>>>>>>>>>>>>>>>>",
">>>>>>>>>>>>>>>>>>>>>>>>>>>>>>#--#===#--#>>>>>>>>>>>>>>>>>>>>>>>>>>>>>>",
">>>>>>>>>>>>>>>>>>>>>>>>>>>#==oo--*=*--oo=##>>>>>>>>>>>>>>>>>>>>>>>>>>>",
">>>>>>>>>>>>>>>>>==##>>>>>>#---*---*---*---#>>>>>>##==>>>>>>>>>>>>>>>>>",
">>>>>>>>>>>>>>>>>o---o>oo>>o*--*==***==*--*o>>oo>o---o>>>>>>>>>>>>>>>>>",
">>>>>>>>>>>>>>==##o***o##oo**==**--*--**==**oo##o***o#===>>>>>>>>>>>>>>",
">>>>>>>>>>>>>>o---**;;-***=#==**---*---**==#=***-;;**---o>>>>>>>>>>>>>>",
">>>>>>>>>>>>##oo---*;;;--**==***==***==***==**--;;;*---oo##>>>>>>>>>>>>",
">>>>>>>>>>>#*---*;;--;;-----=#==#=***#===#=-----;;--;;*---*#>>>>>>>>>>>",
">>>>>>>>>>o-------;;---------=###==*==##==---------;;-------o>>>>>>>>>>",
">>>>>>>>>>>o#--*-;;----*--**-**=========**-**--*----;;-*--#o>>>>>>>>>>>",
">>>>>>>>>>>o*****;-**--*-*==****o#####o****==*-*--**-;*****o>>>>>>>>>>>",
">>>>>>>>>>=--**-----***-----*=**o=###=o**=*-----***-----**--=>>>>>>>>>>",
">>>>>>>>>#---=---*--**---*---==*#==#==#*==---*---**--*---=---#>>>>>>>>>",
">>>>>>>>o---*=--**---=*--***-===##=#=##===-***--*=---**--=*---o>>>>>>>>",
">>>>>>>>>o=***-***---=**-**===#==#####==#===**-**=---***-***=o>>>>>>>>>",
">>>>>>>>o=*===*--**-**--*=**===#==o#o==#===**=*--**-**--*===*=o>>>>>>>>",
">>>>>>>o**=**==---****--==***==#==ooo==#==***==--****---==**=**o>>>>>>>",
">>>>>>>o*==***=--==*===-===**#=##o###o##=#**===-===*==--=***==*o>>>>>>>",
">>>>>>>>o#=***==-=***====##=*=#==**=**=##=*=##====***=-==***=#o>>>>>>>>",
">>>>>>>>>o==*=====***=#===##**=---***---==*##===#=***=====*==o>>>>>>>>>",
">>>>>>>>#=o#===#===*=**#==*=--**--;*;--**--=*==#**=*===#===#o=#>>>>>>>>",
">>>>>>>>#=#o#==###===**##=*-----*-;;;-*-----*=##**===###==#o#=#>>>>>>>>",
">>>>>>>>>#oo#=###=#=#*=#o##=**---;;-;;---**=##o#=*#=#=###=#oo#>>>>>>>>>",
">>>>>#==##**-**-==###=#ooo#**--*-;---;-*--**#ooo#=###==-**-**##==#>>>>>",
">>>>>o---**--*---===###o##=*---****-****---*=##o###===---*--**---o>>>>>",
">>>>>o*-;-*-;;;-----==#==#--****-*****-****--#==#==-----;;;-*-;-*o>>>>>",
">>>>#oo*;;;-;;--**----===---***--*---*--***---===----**--;;-;;;*oo#>>>>",
">>>=--*--;;---**-**--=#=*-==**---*---*---**==-*=#=--**-**---;;--*--=>>>",
">>#-----*--*--*---***##=*==**=--**---**--=**==*=##***---*--*--*-----#>>",
">>oo*--*****-**---*=**==#=#**=-==*---*==-=**#=#==**=*---**-*****--*oo>>",
">>>#--**--*---*--**====##=#*==#=*==-==*=#==*#=##====**--*---*--**--#>>>",
">>#*--*---*---**-****==#o##==*#***===***#*==##o#==****-**---*---*--*#>>",
">#--***--***--****=***===o#=**=***=*=***=**=#o===***=****--***--***--#>",
" ---*-*-**==*-*--===**##==o#*=#**=***=**#=*#o==##**===--*-*==**-*-*--- ",
" --*--***--**==---===*##o###==#=*=***=*=#==###o##*===---==**--***--*-- ",
"o#**--**---*==#---**=#==oo###=oo===*===oo=###oo==#=**---#==*---**--**#o",
">o*=-***--==**=#-=***#===o#oo#o=========o#oo#o===#***=-#=**==--***-=*o>",
"o**==**=-==#***===#**##==#oo###==##=##==###oo#==##**#===***#==-=**==**o",
"o**=#***===#***===##*###o o##ooo###=###ooo##o o###*##===***#===***#=**o",
"o*=#=***#**==**#===###oo  ####oo=#####=oo####  oo###===#**==**#***=#=*o",
"oo##==*=#**#===##==####o  #=#oo==#o#o#==oo#=#  o####==##===#**#=*==##oo",
">>o=#====**o###=o#=#o=##o #==oo#=#ooo#=#oo==# o###o#=#o=###o**====#=o>>",
">>oo#####=*o#===o##oo=oooooo=#o##oo#oo##o#=oooooo=oo##o===#o*=#####oo>>",
">>o###==#####===###oo##o##o##ooo#o###o#ooo##o##o#=oo###===#####==###o>>",
">>o#oo==#o#oo==##o##o##o###===#oo=====#o#===###o##o##o##==oo#o#==oo#o>>",
">>oo  o=o###oo=#oo##oo#oo#===#####=*=#####===#oo#oo##oo#=oo###o=o  oo>>",
">>>>>  oo###ooooooo#ooooo##=**==***#***==**=##ooooo#ooooooo###oo  >>>>>",
">>>>     o#oooo==#oooo###==##====--=--====##==###oooo#==oooo#o     >>>>",
">>>>     oo#oo#===#oo###===#=--#*--*--*#--=#===###oo#===#oo#oo     >>>>",
">>>>>>oo##o#=#oo##o ##o#=o##***#*-===-*#***##o=#o## o##oo#=#o##oo>>>>>>",
">>>>>oo####===#o#oo  oo##ooo==##*=###=*##==ooo##oo  oo#o#===####oo>>>>>",
">>>>>o  ##o==#####oooo####oo=#####=#=#####=oo####oooo#####==o##  o>>>>>",
">>>>>>> oo####o### oo###oo###o###=====###o###oo###oo ###o####oo >>>>>>>",
">>>>>>> o###o##oo#o oo ooo###oo##=====##oo###ooo oo o#oo##o###o >>>>>>>",
">>>>>>o#o##oo##oooo o  o  ###oo#o#=#=#o#oo###  o  o oooo##oo##o#o>>>>>>",
">>>>>>##ooo oo#o oo   oo o##oo##oo###oo##oo##o oo   oo o#oo ooo##>>>>>>",
">>>>>>##   oooooo      o  ooo###o#####o###ooo  o      oooooo   ##>>>>>>",
">>>>>>oo>o  oo  ooo         o##oo#####oo##o         ooo  oo  o>oo>>>>>>",
">>>>>>>>>...OO...OO....OO....$OOOO$O$OOOO$....OO....OO...OO...>>>>>>>>>",
">>>>>>>>>....O.........OO.OO.....OOOOO.....OO.OO.........O....>>>>>>>>>",
">>>>>>>>>>.>>>.........O..OOO...OOO.OOO...OOO..O.........>>>.>>>>>>>>>>",
">>>>>>>>>>>>>>>..>>.......OO....OO...OO....OO.......>>..>>>>>>>>>>>>>>>",
">>>>>>>>>>>>>>>>>>>.>.....O...O....O....O...O.....>.>>>>>>>>>>>>>>>>>>>",
">>>>>>>>>>>>>>>>>>>>>>.>>....OO...OOO...OO....>>.>>>>>>>>>>>>>>>>>>>>>>",
">>>>>>>>>>>>>>>>>>>>>>>>.....O....OOO....O.....>>>>>>>>>>>>>>>>>>>>>>>>",
">>>>>>>>>>>>>>>>>>>>>>::...........O...........>>>>>>>>>>>>>>>>>>>>>>>>",
">>>>>>>>>>>>>>>>>>>>>>:::.::.X.............::.>>>>>>>>>>>>>>>>>>>>>>>>>",
">>>>>>>>>>>>>>>>>>:>>::::::.XX....X......X.::::::>>>>>>>>>>>>>>>>>>>>>>",
">>>>>>>>>>>>>>>>>>::::::::.XX@X.XXX.XX..XXX.:::::>>>>>>>>>>>>>>>>>>>>>>",
">>>>>>>>>>>>>>>>>>>:::::..XX@@XXXX@.X@@X.XXX.::::>>>>>>>>>>>>>>>>>>>>>>",
">>>>>>>>>>>>>>>>>>::::..XX.@@XX@X@@.@@@@X@@XX.::::>>>>>>>>>>>>>>>>>>>>>",
">>>>>>>>>>>>>>>>>>:::O@@..+%@X@@X@@X@@%@X@@@.::::::>>>>>>>>>>>>>>>>>>>>",
">>>>>>>>>>>>>>>>>>:::::.X%%@@@@X@@@@@@%@@@@@@.::::>>>>>>>>>>>>>>>>>>>>>",
">>>>>>>>>>>>>>>>>>:>::.O&&%@@@XX%%@@@@%%@X@@@@.:::>:>>>>>>>>>>>>>>>>>>>",
">>>>>>>>>>>>>>>>>>>>:.@%&%%@XXX%%%@@X@%%@XX@@@@O::::>>>>>>>>>>>>>>>>>>>",
">>>>>>>>>>>>>>>>>>>::X%%%%@XX.%%%%@@XX%%%..X@@@XO:::>>>>>>>>>>>>>>>>>>>",
">>>>>>>>>>>>>>>>>>:::O@@X....@%&%%@@XX@%%X..XXXO::::>>>>>>>>>>>>>>>>>>>",
">>>>>>>>>>>>>>>>>>:::::::::O.%&&%%@X%%X@%@X::::::::>>>>>>>>>>>>>>>>>>>>",
">>>>>>>>>>>>>>>>>>::::::::::@&&&%@.@%&%O@@@O:::::::>>>>>>>>>>>>>>>>>>>>",
">>>>>>>>>>>>>>>>>>>::::::::O@&&%@.:@%&&@OO@@:::::::>>>>>>>>>>>>>>>>>>>>",
">>>>>>>>>>>>>>>>>>>::::::::O%&%@.:::O%&%:::::::::>:>>>>>>>>>>>>>>>>>>>>",
">>>>>>>>>>>>>>>>>>>::::::::O%%@:::::::%%:::::::::>>>>>>>>>>>>>>>>>>>>>>",
">>>>>>>>>>>>>>>>>>>>:>::::::@@:::::::::::::::::::>>>>>>>>>>>>>>>>>>>>>>",
">>>>>>>>>>>>>>>>>>>>>>>:::::::::::::::::::::::::>>>>>>>>>>>>>>>>>>>>>>>",
">>>>>>>>>>>>>>>>>>>>>>>>::::>::::::::::::::::>>>>>>>>>>>>>>>>>>>>>>>>>>",
">>>>>>>>>>>>>>>>>>>>>>>>>>:>>:::::::::::::::>>>>>>>>>>>>>>>>>>>>>>>>>>>",
">>>>>>>>>>>>>>>>>>>>>>>>>>>>>:>>:::::>>>::>>>>>>>>>>>>>>>>>>>>>>>>>>>>>"
};
