/* XPM */
static char *result[] = {
/* columns rows colors chars-per-pixel */
"32 32 237 2 ",
"   c #393E39",
".  c #3D3C3C",
"X  c #3D3E3C",
"o  c #3E3F3E",
"O  c #37463A",
"+  c #3A423B",
"@  c #3B453C",
"#  c #3D463E",
"$  c #35603D",
"%  c #3E4F41",
"&  c #3E5C43",
"*  c #3D6B46",
"=  c #387744",
"-  c #3F784A",
";  c #444543",
":  c #404841",
">  c #414A42",
",  c #424B43",
"<  c #424C43",
"1  c #434A44",
"2  c #434B44",
"3  c #454A45",
"4  c #434C44",
"5  c #454E46",
"6  c #444F46",
"7  c #464F47",
"8  c #494F49",
"9  c #4A4E4A",
"0  c #4A4F4A",
"q  c #465047",
"w  c #465147",
"e  c #49514A",
"r  c #49524A",
"t  c #4A544B",
"y  c #4B544C",
"u  c #4B554C",
"i  c #4C554D",
"p  c #4D554D",
"a  c #4D574E",
"s  c #455A48",
"d  c #485A4B",
"f  c #4D584F",
"g  c #4E584F",
"h  c #525351",
"j  c #525752",
"k  c #555754",
"l  c #515B52",
"z  c #515C52",
"x  c #515C53",
"c  c #525C53",
"v  c #525D53",
"b  c #555954",
"n  c #555B55",
"m  c #575B57",
"M  c #535D54",
"N  c #535E54",
"B  c #545D55",
"V  c #545F55",
"C  c #565C56",
"Z  c #555F56",
"A  c #575E57",
"S  c #595E59",
"D  c #416F49",
"F  c #546056",
"G  c #556056",
"H  c #566057",
"J  c #566157",
"K  c #546356",
"L  c #526C57",
"P  c #566258",
"I  c #576258",
"U  c #566358",
"Y  c #596259",
"T  c #586359",
"R  c #58645A",
"E  c #59645A",
"W  c #58655A",
"Q  c #59655A",
"!  c #5A655B",
"~  c #58665A",
"^  c #5A665C",
"/  c #5C655D",
"(  c #556B58",
")  c #5B685C",
"_  c #5C685D",
"`  c #5D695E",
"'  c #5E6A5F",
"]  c #59775E",
"[  c #5A775F",
"{  c #5E6A60",
"}  c #5F6C61",
"|  c #5E7662",
" . c #606660",
".. c #616761",
"X. c #606C61",
"o. c #606D61",
"O. c #616E63",
"+. c #626F63",
"@. c #626F64",
"#. c #636F64",
"$. c #646D65",
"%. c #637065",
"&. c #637265",
"*. c #647065",
"=. c #657266",
"-. c #667367",
";. c #627B66",
":. c #677468",
">. c #677569",
",. c #687169",
"<. c #69716A",
"1. c #69736A",
"2. c #687569",
"3. c #68766A",
"4. c #69766A",
"5. c #69776B",
"6. c #69786B",
"7. c #6A786B",
"8. c #6A786C",
"9. c #6B796C",
"0. c #6B796D",
"q. c #6C7A6D",
"w. c #6C7A6E",
"e. c #6C7B6E",
"r. c #6D7C6F",
"t. c #6E7C6F",
"y. c #6E7D70",
"u. c #6F7E71",
"i. c #6F7F71",
"p. c #707F72",
"a. c #717F72",
"s. c #737F74",
"d. c #358243",
"f. c #378145",
"g. c #368445",
"h. c #368545",
"j. c #378A47",
"k. c #3F904E",
"l. c #3C984E",
"z. c #3FA653",
"x. c #41894E",
"c. c #4C8255",
"v. c #54805C",
"b. c #53875C",
"n. c #4D9C5C",
"m. c #4D9D5C",
"M. c #50915C",
"N. c #50945C",
"B. c #42A154",
"V. c #42A355",
"C. c #4AA55B",
"Z. c #47B55C",
"A. c #49B95E",
"S. c #5B8462",
"D. c #648069",
"F. c #66846B",
"G. c #728173",
"H. c #728174",
"J. c #728274",
"K. c #738275",
"L. c #738375",
"P. c #748375",
"I. c #758176",
"U. c #748376",
"Y. c #748476",
"T. c #758577",
"R. c #768678",
"E. c #778678",
"W. c #778679",
"Q. c #778779",
"!. c #78877A",
"~. c #7B877C",
"^. c #78887A",
"/. c #79887B",
"(. c #79897B",
"). c #7A897B",
"_. c #7A8A7C",
"`. c #7A8B7D",
"'. c #7B8B7D",
"]. c #7B8C7D",
"[. c #7B8D7E",
"{. c #7C8C7D",
"}. c #7C8C7E",
"|. c #7C8D7E",
" X c #7D8C7F",
".X c #7D8E7F",
"XX c #77917B",
"oX c #759A7B",
"OX c #56A164",
"+X c #4FB262",
"@X c #4DBC62",
"#X c #54B265",
"$X c #57B669",
"%X c #57BF6B",
"&X c #5DBD6F",
"*X c #4DC764",
"=X c #52C968",
"-X c #7E8E80",
";X c #7E8F80",
":X c #7F9081",
">X c #808D81",
",X c #808F82",
"<X c #809182",
"1X c #819183",
"2X c #829384",
"3X c #839485",
"4X c #849586",
"5X c #849686",
"6X c #859686",
"7X c #849687",
"8X c #859687",
"9X c #869888",
"0X c #88998A",
"qX c #889A8A",
"wX c #899B8B",
"eX c #899C8B",
"rX c #8A9B8C",
"tX c #8A9C8C",
"yX c #8B9D8D",
"uX c #8B9E8D",
"iX c #8C9E8D",
"pX c #8C9E8E",
"aX c #8D9F8F",
"sX c #8EA190",
"dX c #8FA190",
"fX c #8FA191",
"gX c #8FA291",
"hX c #8FA391",
"jX c #90A292",
"kX c #90A392",
"lX c #92A494",
"zX c #92A594",
"xX c #92A695",
"cX c #95A897",
"vX c #96A998",
"bX c #97AA99",
"nX c None",
/* pixels */
"nXnXnXnXnXnXnXnXnXnXnXnXnXnXnXnXnXnXnXnXnXnXnXnXnXnXnXnXnXnXnXnX",
"nXnXnXnXnXnXnXnXnXnXnXnXnXnXnXnXnXnXnXnXnXnXnXnXnXnXnXnXnXnXnXnX",
"nXnXnXnXnXnXnXnXnXnXnXnXnXnXnXnXnXnXnXnXnXnXnXnXnXnXnXnXnXnXnXnX",
"nXnXnXnXnXnXnXnXnXnXnXnXnXnXnXnXnXnXnXnXnXnXnXnXnXnXnXnXnXnXnXnX",
"nXnXnXnXnXnXnXnXnXnXnXnXu v t > nXnXnXnXnXnXnXnXnXnXnXnXnXnXnXnX",
"nXnXnXnXnXnXnXnXnXnXnXR a.<XU.7.p.T nXnXnXnXnXnXnXnXnXnXnXnXnXnX",
"nXnXnXnXnXnXnXnXnXnXt ;X}.^._.'.yX3XN nXnXnXnXnXnXnXnXnXnXnXnXnX",
"nXnXnXnXnXnXnXnXnXt.cXQ.(.(._.4.r.|..Xl nXnXnXnXnXnXnXnXnXnXnXnX",
"nXnXnXnXnXnXnXnX^ R.pX4XQ._.'.U.=.wXcXE.nXnXnXnXnXnXnXnXnXnXnXnX",
"nXnXnXnXnXnXnXnX7 :.H.pX3XW.(.(.4XqXsX3.nXnXnXnXnXnXnXnXnXnXnXnX",
"nXnXnXnXnXnXnX: l #.r.J.aX5X(.1XzXu.3.'.-.nXnXnXnXnXnXnXnXnXnXnX",
"nXnXnXnXnXnX, P E I 0.r.U.uXaXyXT.' ! _.9XX.nXnXnXnXnXnXnXnXnXnX",
"nXnXnXnXnX# %.^.X.H +.y.r.8.q.e.>.M 2.(.}.1Xf nXnXnXnXnXnXnXnXnX",
"nXnXnXnXnXo.}.(.u.` E 9.2X<X{ G T.K.^.(.!.tX/.O.> nXnXnXnXnXnXnX",
"nXnXnXnXt.4X!.(.^.=.Z o.|.sX3X-X0XvX4X}.0.*.dXqXqX-.nXnXnXnXnXnX",
"nXnXnX+ {.4XW._._.Q.+._ u.].gXxX8X:.'.bX3X4 G P.iX_ nXnXnXnXnXnX",
"nXnXnX< 6X3X(./.^.^.6.y _ w.J.3.V i I ).fX@.a H B 7 nXnXnXnXnXnX",
"nXnXe $.} rXjX8X|.&.r 5 q a P g x G.+.v R.i.  N.[ 8 nXnXnXnXnXnX",
"nXnXd F.b ) E ;X Xh p eX_.e.a c L.7XqXQ C I 3 f.m.9 nXnXnXnXnXnX",
"nXnX& +X] A U n ( OXs I.kX'.`.(.:X6XY.S v.;. .$ n.0 nXnXnXnXnXnX",
"nXnX% Z.b.m Y ~ %X$Xw Z (.lXhXhXzX5.,.S.@XD...O x.nXnXnXnXnXnXnX",
"nXnXnXl.D ; K #XC.j 1 z 4.;X>X,X[.1.| =Xc.<.W nXnXnXnXnXnXnXnXnX",
"nXnXnXh.nXnX- z.= X @ 2 J ~.oXXXs./ L A.* . nXnXnXnXnXnXnXnXnXnX",
"nXnXnXnXnXnXnXd.nXnXnXnX6 k M.&XF o nXB.nXnXnXnXnXnXnXnXnXnXnXnX",
"nXnXnXnXnXnXnXnXnXnXnXnXnXnXk.*XnXnXnXnXnXnXnXnXnXnXnXnXnXnXnXnX",
"nXnXnXnXnXnXnXnXnXnXnXnXnXnXj.V.nXnXnXnXnXnXnXnXnXnXnXnXnXnXnXnX",
"nXnXnXnXnXnXnXnXnXnXnXnXnXnXg.nXnXnXnXnXnXnXnXnXnXnXnXnXnXnXnXnX",
"nXnXnXnXnXnXnXnXnXnXnXnXnXnXnXnXnXnXnXnXnXnXnXnXnXnXnXnXnXnXnXnX",
"nXnXnXnXnXnXnXnXnXnXnXnXnXnXnXnXnXnXnXnXnXnXnXnXnXnXnXnXnXnXnXnX",
"nXnXnXnXnXnXnXnXnXnXnXnXnXnXnXnXnXnXnXnXnXnXnXnXnXnXnXnXnXnXnXnX",
"nXnXnXnXnXnXnXnXnXnXnXnXnXnXnXnXnXnXnXnXnXnXnXnXnXnXnXnXnXnXnXnX",
"nXnXnXnXnXnXnXnXnXnXnXnXnXnXnXnXnXnXnXnXnXnXnXnXnXnXnXnXnXnXnXnX"
};
