/* XPM */
static char *_573127374323[] = {
/* columns rows colors chars-per-pixel */
"64 64 27 1 ",
"  c black",
". c gray11",
"X c #231C0A",
"o c #312611",
"O c #382A15",
"+ c #3F3115",
"@ c gray15",
"# c #313131",
"$ c #3F3F3F",
"% c #493418",
"& c #50381C",
"* c #5E3F1F",
"= c #654223",
"- c #704626",
"; c #774D2A",
": c #7E502D",
"> c #494949",
", c gray34",
"< c #626262",
"1 c #6C6C6C",
"2 c gray48",
"3 c #885431",
"4 c #8C5734",
"5 c #935B38",
"6 c #9D623B",
"7 c #A4693F",
"8 c gray52",
/* pixels */
"                                                                ",
"                                                                ",
"                                                                ",
"                                                                ",
"                                                                ",
"                                                                ",
"                                                                ",
"                                                                ",
"                                                                ",
"                                                                ",
"                                                                ",
"                                                                ",
"                                                                ",
"                                                                ",
"                                                                ",
"                                                                ",
"                                                                ",
"                                                                ",
"                                                                ",
"                                                                ",
"                                                                ",
"                                                                ",
"                                                                ",
"                                                                ",
"                                                                ",
"                                                                ",
"                                                                ",
"                                                                ",
"                                                                ",
"                                                                ",
"                                                                ",
" 11111111111           <<<<<<<<<1111112222            111111111 ",
" 11111111111         1<>>>>>>>>>>>,,,,,<<<21          111111111 ",
" 11111111111        12>#....@@@@@@@##$$$$><><         111111111 ",
" 11111111111        112882211111<<<<,,,,>>$##         111111111 ",
" 11111111111       33112211<<<,,,,>>>$$$####++        111111111 ",
" 11111111111       ;4:33;---====***&&&++++++&+        111111111 ",
" 11111111111      3;446737664:5543:=*-==%=*++&+       111111111 ",
" 11111111111      ;4;6745766:;5543:=*--=*&=*+&+       111111111 ",
" 11111111111      ;4;6737666::5543:-&---=%=*+&$       111111111 ",
" 11111111111     >,12<737665:5543:;-&---=%$$$$#       111111111 ",
" 11111111111     ><1122821111<<<<<,,,,,>>>>####+      111111111 ",
" 11111111111     >111112<<<<,,,,>>>>>>$$$$#####+      111111111 ",
" 11111111111     ;=>,<11<<<<,,,,>>>>>>$$$$$###&+      111111111 ",
" 11111111111     ;4;644&3:;-+===****X&++++%&&+&+      111111111 ",
" 11111111111     ;4;67747666:5433:;-&---=*%&&+&+      111111111 ",
" 11111111111     ;4;67747666:5433:;-&---=*%&&+&+      111111111 ",
" 11111111111     ;4;67747666;5433:;-&---=*%&&+&+      111111111 ",
" 11111111111     ;4;67747666;5433:;-&---=*%&&+&+      111111111 ",
" 11111111111     ;4;67747666;5433:;-&---=*%&&+&+      111111111 ",
" 11111111111     ;4;67747666;5433:;-&---=*%&&+&+      111111111 ",
" 11111111111     14;67737666-5433:;-&---=*%&&+$$      111111111 ",
" 11111111111     <2221737666-5433:;-&---=*%$$$$#      111111111 ",
" 11111111111     ,11128211111<<<<<,,,,,>>>>$###       111111111 ",
" 11111111111     >,<1121<<<<,,,,>>>>>>$$$$$####O      111111111 ",
" 11111111111      =>,,,<<<<<,,,,>>>>>>$$$$$OOO%&      111111111 ",
" 11111111111      ;;------**o**&&&&&X&&&&OO&+&+&      111111111 ",
" 11111111111      ;4;5737553=3::::;-&--=*+&&+&+                 ",
" 11111111111       ;446;5553=;::::;*&--=*+&&+&+                 ",
" 11111111111       <4;44;553=-:::;-&&--=&+&+&+                  ",
"                   <2824;333-=;;;;-&*-=*+&+++#                  ",
"                    1112222111<<,,,>>>$$$##@.                   ",
"                     1<11<<<,,,,>>>>$$$###@@                    ",
"                       >>>>>$$$$$####@@@@@                      "
};
