/* XPM */
static char *_7717118bc2c4931c80b07aa50dbd8e3Khu1G0xbdDFllbWw[] = {
/* columns rows colors chars-per-pixel */
"146 92 16 1 ",
"  c None",
". c black",
"X c #040707",
"o c #22201C",
"O c #474234",
"+ c #706C5E",
"@ c #8B722B",
"# c #B8942E",
"$ c #D2A629",
"% c #A89457",
"& c #D0B462",
"* c #F1D170",
"= c #FDDD75",
"- c #929291",
"; c #B3B4B4",
": c LightGray",
/* pixels */
"                                                                    OO:                                             ;O;     ....... ..   ..       ",
"                                                                   :XXX+:                                         ;OXX+        .    ..   ..       ",
"                                                                   +XXXXo-                                       +XXXXo        .    . . . .       ",
"                                                                   oXXXXXXO:                                   :oXXXXXX:       .    . . . .       ",
"                                                                  :XX+XXXXXo;                                 -XXXXXOoX;       .    .  .  .       ",
"                                                                  ;Xo&XXXXXXX;                               +XXXXXX@OX-       .    .  .  .       ",
"                                                                  -Xo=OXXXXXXX;                             +XXXXXXX&+X+       .    .     .       ",
"                                                                  +XO=+XXXXXXXX:                           -XXXXXXXO=+XO                          ",
"                                                                  OX+=&XXXXXXXXO                          ;XXXXXXXX%=+XO                          ",
"                                                                  oX+==OXXXXXXXX-                         oXXXXXXXo*=%Xo                          ",
"                                                                  XX%==&XXXXXXXXo     ::;----------;;:   -XXXXXXXX%==%XX                          ",
"                                                                 :XX%===@XXXXXXXX++OoXXXXXXXXXXXXXXXXXXoOoXXXXXXXO===%XX:                         ",
"                                                                 :XX%====OXXXXXXXXXXXXXXXXXXXXXXXXXXXXXXXXXXXXXXo*===%XX:                         ",
"                                                                 :XX%=====OXXXXXXXXoO+@%%&+XXXXXO*&&%%@+OoXXXXXo&====%XX;                         ",
"                                                                 ;XX%======%oXo+%&*=======*oXXXX+========**%@OO&=====%XX;                         ",
"                                                                 ;XX%=======*&*============+XXXX&====================%XX-                         ",
"                                                                 ;XX%======================&XXXo=====================%XX-                         ",
"                                                                 ;XX%=======================+XX+=====================%XX-                         ",
"                                       ;++-:                     :XX%=======================&XX%=====================&XX-                         ",
"                              :::     +XXXXXo+:                  :XX%=============&+ooO%=====OX*=====================&XX-                         ",
"                         ;+OoXXXXXoO++XXXXXXXXXO:                 XX+============+XXoOXX%====%O======================%XX;                         ",
"                      :+oXXXXXXXXXXXXXXXXXXXXXXXX+                oX+===========OXO&==&oo*===*&======================%XX;                         ",
"                     +XXXXo+--;;;--+OXXXXXXXXXXXXXo:              OXO==========+X+=====+X&===========================%XX:                         ",
"                   :oXXX+;           XXXXXXXXXXXXXXX;             OXO=========&Xo*=====&X%================*&%+%======%XX:                         ",
"                  ;oXX+:             oXXXXXXXXXXXXXXX;            +Xo*========&O%======&X+==============&+XXXXO======%Xo                          ",
"                 ;XXX-               -XXXXXXXXXXXXXXXX;           -XX&=================&X+=============+XXO%&&*======+XO                          ",
"                :oXo;                 -oXXXXXXXXXXXXXX+           ;XXo%*===============&X+============+XO&===========OXO                          ",
"                OXX;                    ;+OoXXXXXoO+-:             XXXXo%==============%X%===========%XO=============oX+                          ",
"               -XX-                          :::                   oXXXXXo%*===========%X&==========*oo*============&XX-                          ",
"               oXO                                                 +XXO+++%&=====******+X***********%X+=****=====*%OXXX:                          ",
"              -XX:                                                 -XX&=========%ooooooXXooooooooooooXoooooo%===&OXXXXo                           ",
"              oXO                                                :-OXX+=========%OOOOOoXoOOOOOOOOOOoXoOOOOOO%===***&OXO                           ",
"             ;XX;                                             ;+oXXXXXO===============%X%==========%X%==============oX-                           ",
"             +Xo                                           ;+oXXXXXOoXXO%*============OX*==========%X%=============&XX:                           ",
"             OXO                                        :-oXXXXoO@#$@XXXXO&==========&XO===========%X%=============+Xo                            ",
"             oX-                                      ;OXXXXoO@$$$$$$oXo&*===========+X&===========&X+=========*&+OXX+                            ",
"             XX-                                    -OXXXXO@#$$$$$$$$OXX&===========*oo=============oO=========&+XXXX;                            ",
"            :XX;                                  -oXXXXXO$$$$$$$$$$$@XX+===========%X+&&&&&&&&&&&&&+X%==========*OXo                             ",
"            :XX;                                -oXXXXXXXo&$$$$$$$$$$$oXo*=========*oXXXXXXXXXXXXXXXXXo==========*oX-                             ",
"            :XX;                              -oXXXXXXXXXX%$$$$$$$$$$$@XX%==========%oXX++++++++++OXXo%==========%XX:                             ",
"             XX-                            -oXXXOOXXXXXXXO$$$$$$$$$$$$oXo*==========&OXo%=======%oX+*===========OX+                              ",
"             oX-                          ;OXXXO@$$@oXXXXXX&$$$$$$@OOOOoXXOOOOO+=======%oXO&===&OXo&======%OOOOOOXXoOOO+                          ",
"             OX+                        :+XXXXX%$$$$#OXXXXX%$$$$$$@XXXXXXXXXXXXO========*+XX+*@XX+*=======%XXXXXXXXXXXXo                          ",
"             +Xo                       -oXXXXXXo$$$$$$@oXXXO$$$$$$$$$$$$@XX+==============&OXoXO&==============%XX;                               ",
"             ;XX:                    :OXXXOOXXXX+$$$$$$#OXXX&$$$$$$$$$$$$oXo*==============+XXX+==============*oXO                                ",
"              XX-                   -XXXo@$$@oXXX&$$$$$$$@oX%$$$$$@ooooooXXXoooO=========&oXO%OXO&========%ooooXXooooooO                          ",
"              OXO                 :OXXX@$$$$$$@oXO$$$$$$$$#OO$$$$$@ooooooooXXXo+=======*+XX+===%oX+*======%oooXXoooooooO                          ",
"              -XX:               -XXXX#$$$$$$$$$@o@$$$$$$$$$@#$$$$$$$$$$$$#XXo*========%XO&=====*OXo*=======*OXo                                  ",
"               oX+              +XXXXX%$$$$$$$$$$$#$$$$$$$$$$$$$$$$$$$$$$$$@XX+========*%=========%%========@XX;                                  ",
"               +XX:           :oXXXXXX+$$$$$$$$$$$$$$$$$$$$$$$$$$$$$$$$$$$$$OXX%===========================%XX+                                   ",
"               :XX+          -XXXO@oXXO$$$$$$$$$$$$$$$$$$$$$$$$$$$$$$$$$$$$$$oXX&=========================&oXO                                    ",
"                +XX:        +XXX@$$$OXX#$$$$$$$$$$$$$$$$$$$$$$$$$$$$$$$$$$$$$#XXo&=======================*oXo:                                    ",
"                :oXO       OXXo@$$$$$@o@$$$$$$$$$$$$$$$$$$$$$$$$$$$$$$$$$$$$$$@XXo*=====================*OXX;                                     ",
"                 -XX;    :OXXo#$$$$$$$#@$$$$#+%$$$$$$$$$$$$$$$$$$$$$$$$$$$$$$$$@XXO*====================OXX-                                      ",
"                  oXo   :oXXO#$$$$$$$$$$$$$$@XX#$$$$$$$$$$$$$$$$$$$$$$$$$$$$$$$$@XXo*==================OXX+                                       ",
"                  ;XX+ :oXXO$$$$$$$$$$$$$$$$OXo$$$$$$$$$$$$$$$$$$$$$$$$$$$$$$$$$$@XXo&===============*OXX+                                        ",
"                   +XX+oXXO$$$$$$$$$$$$$$$$$OXO$$$$$$$$$$$$$$$$$$$$$$$$$$$$$$$$$$$@XXo%=============&OXX+                                         ",
"                    OXXXX@$$$$$$$$$$$$$$$$$#oX@$$$$$$$$$$$$$$$$$$$$$$$$$$$$$$$$$$$$@XXX@===========&oXX+                                          ",
"                    ;XXX@$$$$$$$$$$$$$$$$$$@XX@$$$$$$$$$$$$$$$$$$$$$$$$$$$$$$$$$$$$$@oXXO&========@XXX+                                           ",
"                    OXXXO$$$$$$$$$$$$$$$$$$@XX#$$$$$$$$$$$$$$$$$$$$$$$$$$$$$$$$$$$$$$#oXXo%=====&OXXX-                                            ",
"                   OXXoXX+$$$$$$$$$$$$$$$$$@Xo$$$$$$$$$$$$$$$$$$$$$$$$$$$$$$$$$$$$$$$$#OXXXO%==%oXXo;                                             ",
"                  +XXO#OXX+$$$$$$$$$$$$$$$$OXO$$$$$$$$$$$$$$$$$$$$$$$$$$$$$$$$$$$$$$$$$$@XXXXOOXXXO:                                              ",
"                 +XXO$$#oXX%$$$$$$$$$$$$$$$OXO$$$$$$$$$$$$$$$$$$$$$$$$$$$$$$$$$$$$$$$$$$$#oXXXXXXX;                                               ",
"                -XXo#$$$#oXX%$$$$$$$$$$$$$$oX+$$$$$$$$$$$$$$$$$$$$$$$$$$$$$$$$$$$$$$$$$$$$$@XXXOOXo;                                              ",
"               ;XXo#$$$$$#oXX%$$%%%%%%%%%%&oX+$$$$$$$$$$$$$$$$$$$$$$$$$$$$$$$$$$$$$$$$$$$$$$#O@$$OXo:                                             ",
"              :oXX#$$$$$$$@XXXOoXXXXXXXXXXXXXoO++@%%&$$$$$$$$$$$$$$$$$$$$$$$$$$$$$$$$$$$$$$$$$$$$#XXo:                                            ",
"              oXX@$$$$$$#@OXXXXXXXXXXXXXXXXXXXXXXXXXooO+@%$$$$$$$$$$$$$$$$$$$$$$$$$$$$$$$$$$$$$$$OXXXo:                                           ",
"             OXX@$$$$$#+oXXXXXXXXXXXXXXXXXXXXo+OoXXXXXXXXXoO+%#$$$$$$$$$$$$$$$$$$$$$$$$$$$$$$$$$@XXXXXo:                                          ",
"            +XXO$$$$$@oXXXO-:;oXXXXXXXXXXXXXX+    :;-+OoXXXXXXXo+@#$$$$$$$$$$$$$$$$$$$$$$$$$$$$#XXO@#oXo                                          ",
"           ;XXO$$$$#OXXXO:    :oXXXXXXXXXXXXXO          :;-OoXXXXXXo+%$$$$$$$$$$$$$$$$$$$$$$$$$OO@$$$#oXO                                         ",
"          :oXo#$$$#oXXO;       :oXXXXXXXXXXXXo               :-+oXXXXXoO+#$$$$$$$$$$$$$$$$$$$$#@$$$$$$#oXO                                        ",
"          OXX@$$$#oXX+          :OXXXXXXXXXXXX:                  :-+oXXXXXO+#$$$$$$$$$$$$$$$$$$$$$$$$$$OXX+                                       ",
"         +XX@$$$#oXX-             OXXXXXXXXXXX-                      ;+OXXXXXO+#$$$$$$$$$$$$$$$$$$$$$#OXXXX+                                      ",
"        ;XXO$$$$oXX;               +XXXXXXXXXXo                         :-OXXXXXO%$$$$$$$$$$$$$$$$$$@XXXoOXX+                                     ",
"       :oXo#$$$OXX-                 -XXXXXXXXXX;                           :-OXXXXo+%$$$$$$$$$$$$$#OXo+@#$@XX+                                    ",
"       OXX@$$$@XX+                   ;oXXXXXXXXo                              :-oXXXXO+#$$$$$$$$$$@@#$$$$$$@XX-                                   ",
"      -XX@$$$$oXo                     :OXXXXXXXX+                                ;+oXXXo+%$$$$$$$$$$$$$$$$$$OXX-                                  ",
"     :XXO$$$$@XX-                       +XXXXXXXX+OooO+;                            -OXXXXO%$$$$$$$$$$$$$$$$$OXX;                                 ",
"     OXX#$$$$OXO                         -oXXXXXXXXXXXXX+                             :+oXXXo+#$$$$$$$$$$$$$$$OXX;                                ",
"    -XX@$$$$#XX-                          :OXXXXXXXXXXXXX-                               -OXXXX+%$$$$$$$$$$$$$$OXX;                               ",
"   :oXO$$$$$+Xo                             +XXXXXXXXXXXXO                                 ;OXXXXO%$$$$$$$$$$$$$oXo:                              ",
"   OXX#$$$$$oX+                              ;oXXXXXXXXXXo                                   :+oXXXO%$$$$$$$$$$$#oXo:                             ",
"  ;XX@$$$$$#XX-                               :----------;                                     :-oXXXo%$$$$$$$$$$#oXo---;:                        ",
"  oXo$$$$$$#XX;                                                                                   -oXXXo+$$$$$$$$$#oXXXXXXO-:                     ",
" -XX@$$$$$$@XX:                                                                                     ;OXXXo+$$$$$$$$#OOOOoXXXX+:                   ",
" oXO$$$$$$$@XX                                                                                        ;OXXXo+$$$$$$$$$$$$#@oXXo;                  ",
"-XX#$$$$$$$@XX                                                                                          ;OXXXo+$$$$$$$$$$$$$@XXX;                 ",
"oXXOOOOOOOOoXX:                                                                                           ;OXXXo+$$$$$$$$$$$$@XXo:                ",
"XXXXXXXXXXXXXX;                                                                                             ;OXXXo+$$$$$$$$$$$@XX+                ",
"++++++++++++++;                                                                                               ;OXXXo@@@@@@@@@@@oXo                ",
"                                                                                                                ;OXXXXXXXXXXXXXXXX                ",
"                                                                                                                  ;OXXXXXXXXXXXXXo                "
};
